# xmcd
#
# Track frame offsets: 
#        225
#        13767
#        31460
#        45637
#        56847
#        67492
#        82885
#        97517
#        114530
#        131375
#
# Disc length: 1949 seconds
#
# Revision: 0
# Processed by: cddbd v1.5.1PL2 Copyright (c) Steve Scherf et al.
# Submitted via: ExactAudioCopy v0.95a4
#
DISCID=80079a0a
DTITLE=Various Artist - Christmas in the Valley Vol.4
DYEAR=1900
DGENRE=Country
TTITLE0=Wayne Rostad and Friends - Christmas in the Valley
TTITLE1=Neville Wells - I'll be home for Christmas
TTITLE2=Bobby Lalonde - Winter Wonderland
TTITLE3=Sneezy Waters - Jingle Bell Rock
TTITLE4=Charlie Major - Santa Clause is Coming to Town
TTITLE5=Ted Gerow and Christmas in the Valley Players - The First Noel
TTITLE6=The Family Brown - O Holy Night
TTITLE7=Terry Carisse - O Come All Ye Faithful
TTITLE8=Dan Paul Rogers - What Child is This
TTITLE9=Wayne Rostad and Ottawa Police Chorus - O Little Town of Bethleh
TTITLE9=em
EXTD=
EXTT0=
EXTT1=
EXTT2=
EXTT3=
EXTT4=
EXTT5=
EXTT6=
EXTT7=
EXTT8=
EXTT9=
PLAYORDER=
